<svg xmlns="http://www.w3.org/2000/svg" viewBox="0 0 345.02 89.83" height="36">
	<defs>
		<style>
			.cls-1{fill:#231f20;}.cls-2{fill:#ff7c00;}.cls-3{fill:#e2e2e2;}.cls-4{fill:#ff910d;}.cls-5{fill:#fff;}
			@media (prefers-color-scheme: dark) {
				.cls-1 { fill: #ffffff; }
			}
		</style>
	</defs>
	<g id="Layer_2" data-name="Layer 2">
		<g id="Layer_1-2" data-name="Layer 1">
			<g id="code_html5">
				<path class="cls-1"
					d="M131.13,64.23a19.72,19.72,0,0,1-14.21,6,20.07,20.07,0,1,1,14.13-34.36l-5.3,5.38a12.51,12.51,0,1,0-8.83,21.36,12.1,12.1,0,0,0,8.91-3.7Z"
					transform="translate(0 -5.54)" />
				<path class="cls-1"
					d="M172.53,70.25h-7.1V50.1c0-7-5.28-12.52-11.77-12.52S142,43,141.89,49.94V70.17h-7.1v-60h7.1v24.4a18.08,18.08,0,0,1,11.77-4.41c10.41,0,18.79,8.91,18.87,20Z"
					transform="translate(0 -5.54)" />
				<path class="cls-1"
					d="M216,50.26a19.91,19.91,0,1,1-3.53-11.56l-22.4,22.48a12.88,12.88,0,0,0,5.78,1.45A12.43,12.43,0,0,0,208.5,50.26ZM184.81,55.8l16.86-16.86a13.07,13.07,0,0,0-5.78-1.36,12.39,12.39,0,0,0-12.36,12.68A13.05,13.05,0,0,0,184.81,55.8Z"
					transform="translate(0 -5.54)" />
				<path class="cls-1"
					d="M257.47,50.26a19.91,19.91,0,1,1-3.53-11.56l-22.4,22.48a12.88,12.88,0,0,0,5.78,1.45,12.43,12.43,0,0,0,12.61-12.37ZM226.24,55.8,243.1,38.94a13.07,13.07,0,0,0-5.78-1.36A12.39,12.39,0,0,0,225,50.26,13.05,13.05,0,0,0,226.24,55.8Z"
					transform="translate(0 -5.54)" />
				<path class="cls-1"
					d="M261,70.25V30.51h7.55V34.6a20,20,0,0,1,12.53-4.41v7.55a12.49,12.49,0,0,0-12.53,12.52v20Z"
					transform="translate(0 -5.54)" />
				<path class="cls-1"
					d="M281.64,50.26a20,20,0,1,1,20,20,19.65,19.65,0,0,1-12.44-4.33v23.6h-7.55Zm32.52,0a12.49,12.49,0,1,0-25,0v.08a12.49,12.49,0,1,0,25-.08Z"
					transform="translate(0 -5.54)" />
				<path class="cls-2"
					d="M336.14,30.73h7.52V69.45a20,20,0,0,1-20,20V81.93a12.44,12.44,0,0,0,12.48-12.48Zm3.76-6.16A5.12,5.12,0,1,1,345,19.45,5.16,5.16,0,0,1,339.9,24.57Z"
					transform="translate(0 -5.54)" />
				<polygon class="cls-2"
					points="79.37 0 39.69 0 39.69 0 0 0 7.44 80.69 39.69 89.83 39.69 89.83 39.69 89.83 39.69 89.83 39.69 89.83 71.92 80.69 79.37 0" />
				<path class="cls-3"
					d="M44.83,31.79a19,19,0,0,1,11.75,3.69c.33.25.65.53,1,.81a1.52,1.52,0,0,1,.52,1.61,1.66,1.66,0,0,1-1.3,1.17c-1.86.58-3.76,1.08-5.56,1.82a32.11,32.11,0,0,0-11.7,8.46,29.77,29.77,0,0,1-17.15,9.7,9.32,9.32,0,0,1-1.06.15,1.51,1.51,0,0,1-1.63-1.1,14.73,14.73,0,0,1-.61-6.75,19.3,19.3,0,0,1,7.2-12.21,31.5,31.5,0,0,1,14.93-7c.54-.09,1.09-.16,1.63-.21C43.56,31.85,44.31,31.82,44.83,31.79Z"
					transform="translate(0 -5.54)" />
				<path class="cls-3"
					d="M36.75,70.88c-4.69-.06-8.59-1.14-12-3.84-.29-.23-.57-.49-.85-.74a1.63,1.63,0,0,1-.62-1.77,1.77,1.77,0,0,1,1.39-1.23c1.84-.59,3.7-1.12,5.47-1.87a32.68,32.68,0,0,0,11.8-8.89A29.35,29.35,0,0,1,59.62,42.47a1.65,1.65,0,0,1,2.14,1.4,17.05,17.05,0,0,1-1.93,13.71,25.1,25.1,0,0,1-8.78,8.66,29.94,29.94,0,0,1-11.48,4.37C38.48,70.76,37.38,70.82,36.75,70.88Z"
					transform="translate(0 -5.54)" />
				<polygon class="cls-4"
					points="39.86 7.62 39.86 84.04 39.86 84.04 66.14 76.64 72.55 7.62 39.86 7.62" />
				<path class="cls-5"
					d="M56.45,36.36c-.32-.28-.66-.55-1-.81a20.41,20.41,0,0,0-12.28-3.68c-.55,0-1.33.06-2.1.12a7.53,7.53,0,0,0-1.05.22c-.28,0,.83.11-.15.16V48.46c3.94-3.2,6.28-5.79,10.63-7.49,1.88-.74,3.54-1.25,5.49-1.83A1.48,1.48,0,0,0,57.16,38,1.55,1.55,0,0,0,56.45,36.36Z"
					transform="translate(0 -5.54)" />
				<path class="cls-5"
					d="M61,45.06a1.64,1.64,0,0,0-2.14-1.35,29.37,29.37,0,0,0-17.59,9.7c-.5.55-.46,1.07-1.44,1.59V70.68a29.57,29.57,0,0,0,10.55-4.07,24.48,24.48,0,0,0,8.73-8.34A15.87,15.87,0,0,0,61,45.06Z"
					transform="translate(0 -5.54)" />
			</g>
		</g>
	</g>
</svg>
